<svg xmlns="http://www.w3.org/2000/svg" xmlns:xlink="http://www.w3.org/1999/xlink" id="car" width="64" height="64" viewBox="16.406 33.095 71.191 33.789">
  <defs>
    <linearGradient xlink:href="#a" id="c" x1="2027.275" x2="1991.151" y1="519.045" y2="508.438" gradientTransform="translate(0 156.27)" gradientUnits="userSpaceOnUse"></linearGradient>
    <linearGradient id="a">
      <stop offset="0" stop-color="#ff8915"></stop>
      <stop offset="1" stop-color="#ff8915" stop-opacity="0"></stop>
    </linearGradient>
    <linearGradient xlink:href="#b" id="d" x1="2006.931" x2="2054.856" y1="540.612" y2="510.913" gradientTransform="translate(0 156.27)" gradientUnits="userSpaceOnUse"></linearGradient>
    <linearGradient id="b">
      <stop offset="0" stop-color="#fff306"></stop>
      <stop offset="1" stop-color="#fff306" stop-opacity="0"></stop>
    </linearGradient>
  </defs>
  <path fill="#ffc215" d="M51.995 33.1c-11.518 0-21.187 5.777-23.952 13.6h-6.13a5.493 5.493 0 0 0-5.507 5.507v3.667a5.504 5.504 0 0 0 5.507 5.521h2.937a8.948 8.948 0 0 1-.04-.88 8.673 8.673 0 0 1 8.673-8.673 8.673 8.673 0 0 1 8.674 8.674c0 .294-.012.592-.04.88H60.83a8.948 8.948 0 0 1-.04-.88 8.673 8.673 0 0 1 8.673-8.674 8.673 8.673 0 0 1 8.674 8.674c0 .294-.012.592-.04.88h3.991a5.504 5.504 0 0 0 5.508-5.522v-3.667a5.492 5.492 0 0 0-5.507-5.508h-6.13c-2.768-7.822-12.447-13.6-23.965-13.6z"></path>
  <path fill="#5d5e63" fill-rule="evenodd" d="M39.773 60.513a6.292 6.292 0 1 1-12.584 0 6.292 6.292 0 0 1 12.584 0zM75.75 60.513a6.292 6.292 0 1 1-12.583 0 6.292 6.292 0 0 1 12.583 0z"></path>
  <path fill="url(#c)" d="M2021.781 641.583c-26.599 0-48.928 13.342-55.312 31.406h-14.157a12.684 12.684 0 0 0-12.718 12.72v8.5a12.684 12.684 0 0 0 12.718 12.718h6.782a20.664 20.664 0 0 1-.094-2.031c0-11.066 8.966-20.032 20.031-20.032s20.031 8.966 20.031 20.032c0 .68-.027 1.367-.094 2.03h5.875l31.563-63.968c-4.668-.905-9.57-1.375-14.625-1.375z" opacity=".413" transform="translate(-823.477 -244.723)scale(.43302)"></path>
  <path fill="url(#d)" d="M2021.781 641.583c-17.03 0-32.316 5.48-42.781 14.156l56.813 51.188h6.374a20.664 20.664 0 0 1-.093-2.031c0-11.066 8.966-20.032 20.03-20.032 11.066 0 20.032 8.966 20.032 20.032 0 .68-.027 1.367-.094 2.03h9.219a12.684 12.684 0 0 0 12.718-12.718v-8.5a12.684 12.684 0 0 0-12.718-12.719h-14.157c-6.391-18.064-28.745-31.406-55.343-31.406z" opacity=".466" transform="translate(-823.477 -244.723)scale(.43302)"></path>
  <path fill="#2e8cea" d="M49.397 37.507c-7.192.712-13.132 4.338-15.549 9.201h15.549v-9.201zm5.196 0v9.201H70.14c-2.42-4.866-8.351-8.492-15.548-9.201z"></path>
  <path fill="#d34836" fill-rule="evenodd" d="M80.56 46.695c-.099.354-.162.723-.162 1.11 0 2.268 1.831 4.1 4.1 4.1h3.086a5.499 5.499 0 0 0-5.494-5.21h-1.53z"></path>
  <path fill="#ff5d42" fill-rule="evenodd" d="M23.429 46.695c.1.354.162.723.162 1.11 0 2.268-1.831 4.1-4.1 4.1h-3.085a5.499 5.499 0 0 1 5.494-5.21h1.529z"></path>
  <path fill="#4c4c50" fill-rule="evenodd" d="M38.382 56.564 32.17 66.66c.422.09.863.149 1.312.149a6.293 6.293 0 0 0 4.899-10.244z" opacity=".413"></path>
  <path fill="#4c4c50" fill-rule="evenodd" d="m37.1 65.664-9.658-6.87a6.336 6.336 0 0 0-.236 1.3 6.293 6.293 0 0 0 9.895 5.57z" opacity=".466"></path>
  <path fill="#4c4c50" fill-rule="evenodd" d="m73.761 65.107-10.525-5.45a6.337 6.337 0 0 0-.052 1.32 6.293 6.293 0 0 0 10.577 4.13z" opacity=".413"></path>
  <path fill="#4c4c50" fill-rule="evenodd" d="m68.059 66.611-1.367-11.773c-.388.19-.77.417-1.123.695a6.293 6.293 0 0 0 2.49 11.078z" opacity=".466"></path>
</svg>
